<?xml version="1.0" encoding="utf-8"?>
<!-- Generator: Adobe Illustrator 19.1.1, SVG Export Plug-In . SVG Version: 6.00 Build 0)  -->
<svg version="1.1" id="Layer_1" xmlns="http://www.w3.org/2000/svg" xmlns:xlink="http://www.w3.org/1999/xlink" x="0px" y="0px"
     viewBox="35.2 7 142.6 24.5" style="enable-background:new 35.2 7 142.6 24.5;" xml:space="preserve">
<style type="text/css">
    .st0{fill:#577397;}
    .st1{fill:#B4E647;}
</style>
<path class="st0" d="M40.7,25.3l1.6-7.4h5.8l0.8-3.7h-5.8l1-4.7l-4.6,1.8l-0.6,2.9H36l-0.8,3.7h2.9l-1.7,7.8
    C35.3,30.8,37,32,40.9,32c1.4,0,3.1-0.3,4.3-0.6l0.8-3.6c-0.9,0.3-2.3,0.5-3.3,0.5C40.7,28.4,40.3,27.5,40.7,25.3z M52.9,11.5
    c1.9,0,2.5-0.3,3-2.3c0.4-1.8-0.1-2.1-2-2.1c-1.9,0-2.5,0.3-2.9,2.1C50.5,11.1,51,11.5,52.9,11.5z M50.2,14.2l-3.7,17.3h4.3
    l3.7-17.3C54.5,14.2,50.2,14.2,50.2,14.2z M75.9,13.7c-2,0-4.4,0.5-6.5,1.2c-0.9-0.8-2.3-1.2-4.2-1.2c-2.8,0-6.1,0.7-8.4,1.5
    l-3.5,16.3h4.3l2.9-13.6c0.9-0.2,2.1-0.4,3-0.4c2.8,0,3.3,1,2.5,4.8l-2,9.2h4.3l2.1-9.6c0.3-1.6,0.4-2.9,0.3-3.9
    c1.2-0.3,2.6-0.5,3.5-0.5c2.8,0,3.3,1,2.5,4.8l-2,9.2H79l2.1-9.6C82.4,15.7,80.8,13.7,75.9,13.7z M92.9,13.7
    c-5.1,0-8.6,2.1-10.1,9.1c-1.5,7.1,1.5,9.2,6.5,9.2c1.8,0,4.4-0.4,6.3-1v-3.3c-1.4,0.4-3.8,0.7-5,0.7c-3.1,0-4.3-0.7-3.6-4.5h11.3
    C100.4,15.6,98.4,13.7,92.9,13.7z M95.1,20.8h-7.3c0.9-2.9,2-3.7,4.7-3.7C94.8,17.1,95.6,17.7,95.1,20.8z M123.8,14.2
    c-2,4.3-4.4,8.7-6.9,13c0-3.7-0.3-9.6-0.7-13H112c-1.4,3.1-4.6,9.5-6.6,13c-0.1-4.4-0.5-9.2-1.2-13h-4.5c0.9,5.3,1.5,11.3,1.9,17.3
    h5.2c1.8-3.1,4.2-8,5.8-11.6c0.2,2.7,0.4,8.1,0.3,11.6h5.3c3.4-5.5,6.9-11.7,9.7-17.3C127.9,14.2,123.8,14.2,123.8,14.2z M141.6,24
    c2.1-8.4,0.1-10.3-5.4-10.3c-5.1,0-8.6,2.1-10.1,9.1c-1.5,7.1,1.5,9.2,6.5,9.2c1.8,0,4.4-0.4,6.3-1v-3.3c-1.4,0.4-3.8,0.7-5,0.7
    c-3.1,0-4.3-0.7-3.6-4.5L141.6,24L141.6,24z M135.7,17.1c2.4,0,3.2,0.6,2.7,3.7H131C131.9,17.9,133,17.1,135.7,17.1z M154.3,13.7
    c-2,0-3.7,0.6-4.8,1.2l1.7-7.9H147l-5.1,23.7c1.7,0.7,4.9,1.3,7.4,1.3c5.8,0,8.8-2.1,10.3-9.2C161.1,15.8,159.2,13.7,154.3,13.7z
     M155.3,22.8c-1.1,4.9-2.2,5.7-5.3,5.7c-1.1,0-2.4-0.2-3.3-0.5l1.9-8.9c0.2-1,1.9-1.6,3.8-1.6C155.5,17.4,156.2,18.5,155.3,22.8z"/>
<path class="st1" d="M177.4,21.8c-0.7-0.6-11-7.1-11-7.1s-0.9,0.5-1.4,1.3c-0.5,0.8-0.6,2-0.6,2s6.4,3.9,7,4.3
    c0.5,0.3,0.5,0.9,0,1.3c-0.6,0.4-7,4.3-7,4.3s0.1,1.1,0.6,2c0.5,0.8,1.4,1.2,1.4,1.2s10.3-6.5,11-7.1C178,23.3,178,22.3,177.4,21.8z
    "/>
</svg>
